# xmcd
#
# Track frame offsets:
#	150
#	18065
#	34842
#	54658
#	71895
#	87346
#	102879
#	121739
#	136864
#	154787
#	168177
#	181435
#	196350
#	215398
#	230237
#	248402
#	265903
#	284497
#	305117
#	325261
#
# Disc length: 4487 seconds
# Revision: 0
# Processed by: cddbd v1.5.2PL0 Copyright (c) Steve Scherf et al.
# Submitted via: dBpowerAMP V12.0
#
DISCID=1d118514
DTITLE=Diana Ross - To Love Again
DYEAR=2003
DGENRE=R&B
TTITLE0=It's My Turn
TTITLE1=Stay With Me
TTITLE2=One More Chance
TTITLE3=Crying My Heart Out For You
TTITLE4=The Theme From Mahogany (Do You Know Where You're Going To?)
TTITLE5=I Thought It Took A Little Time (But Today I Fell in Love)
TTITLE6=To Love Again
TTITLE7=No One's Gonna Be A Fool Forever
TTITLE8=Touch Me In The Morning
TTITLE9=Love Me
TTITLE10=Stop, Look, Listen (To Your Heart)
TTITLE11=Together
TTITLE12=After You
TTITLE13=Too Shy To Say
TTITLE14=Come In From The Rain
TTITLE15=Never Say I Don't Love You
TTITLE16=Share Some Love
TTITLE17=Dreaming Of You
TTITLE18=Endless Love
TTITLE19=We're Always Saying Goodbye
EXTD=
EXTT0=
EXTT1=
EXTT2=
EXTT3=
EXTT4=
EXTT5=
EXTT6=
EXTT7=
EXTT8=
EXTT9=
EXTT10=
EXTT11=
EXTT12=
EXTT13=
EXTT14=
EXTT15=
EXTT16=
EXTT17=
EXTT18=
EXTT19=
PLAYORDER=
